<svg width="162" height="23" viewBox="0 0 162 23" fill="none" xmlns="http://www.w3.org/2000/svg">
<path d="M161.061 12.5607C161.646 11.9749 161.646 11.0251 161.061 10.4393L151.515 0.893398C150.929 0.307611 149.979 0.307611 149.393 0.893398C148.808 1.47919 148.808 2.42893 149.393 3.01472L157.879 11.5L149.393 19.9853C148.808 20.5711 148.808 21.5208 149.393 22.1066C149.979 22.6924 150.929 22.6924 151.515 22.1066L161.061 12.5607ZM0 13H2V10H0V13ZM6 13H10V10H6V13ZM14 13H18V10H14V13ZM22 13H26V10H22V13ZM30 13H34V10H30V13ZM38 13H42V10H38V13ZM46 13H50V10H46V13ZM54 13H58V10H54V13ZM62 13H66V10H62V13ZM70 13H74V10H70V13ZM78 13H82V10H78V13ZM86 13H90V10H86V13ZM94 13H98V10H94V13ZM102 13H106V10H102V13ZM110 13H114V10H110V13ZM118 13H122V10H118V13ZM126 13H130V10H126V13ZM134 13H138V10H134V13ZM142 13H146V10H142V13ZM150 13H154V10H150V13ZM158 13H160V10H158V13ZM161.061 12.5607C161.646 11.9749 161.646 11.0251 161.061 10.4393L151.515 0.893398C150.929 0.307611 149.979 0.307611 149.393 0.893398C148.808 1.47919 148.808 2.42893 149.393 3.01472L157.879 11.5L149.393 19.9853C148.808 20.5711 148.808 21.5208 149.393 22.1066C149.979 22.6924 150.929 22.6924 151.515 22.1066L161.061 12.5607ZM0 13H2V10H0V13ZM6 13H10V10H6V13ZM14 13H18V10H14V13ZM22 13H26V10H22V13ZM30 13H34V10H30V13ZM38 13H42V10H38V13ZM46 13H50V10H46V13ZM54 13H58V10H54V13ZM62 13H66V10H62V13ZM70 13H74V10H70V13ZM78 13H82V10H78V13ZM86 13H90V10H86V13ZM94 13H98V10H94V13ZM102 13H106V10H102V13ZM110 13H114V10H110V13ZM118 13H122V10H118V13ZM126 13H130V10H126V13ZM134 13H138V10H134V13ZM142 13H146V10H142V13ZM150 13H154V10H150V13ZM158 13H160V10H158V13Z" fill="#414D63"/>
</svg>
