<svg width="31" height="28" viewBox="0 0 31 28" fill="none" xmlns="http://www.w3.org/2000/svg">
<path fill-rule="evenodd" clip-rule="evenodd" d="M4.84021 16.9806C3.71993 15.146 3.71993 12.854 4.84021 11.0194C5.24236 10.3608 5.9086 9.89945 6.67506 9.74883L8.99855 9.29222L11.8891 5.88395C12.6772 4.95468 13.3161 4.2013 13.8522 3.71921C14.3607 3.26202 15.0355 2.80806 15.8112 3.08402C16.5869 3.35998 16.8095 4.13317 16.9022 4.80426C17 5.51187 17 6.49253 17 7.70214L17 20.2979C17 21.5075 17 22.4881 16.9022 23.1957C16.8095 23.8668 16.5869 24.64 15.8112 24.916C15.0355 25.1919 14.3607 24.738 13.8522 24.2808C13.3161 23.7987 12.6772 23.0453 11.8891 22.1161L8.99855 18.7078L6.67506 18.2512C5.9086 18.1005 5.24236 17.6392 4.84021 16.9806ZM6.02909 11.7203C5.17225 13.1235 5.17225 14.8765 6.02909 16.2797C6.23027 16.6092 6.56355 16.8399 6.94697 16.9153L9.29429 17.3766C9.58941 17.4346 9.85543 17.5901 10.0481 17.8173L12.9168 21.1998C13.7511 22.1835 14.3301 22.8639 14.7882 23.2757C15.0153 23.4799 15.1683 23.5762 15.2656 23.6161C15.3092 23.634 15.3304 23.6358 15.3343 23.636C15.3346 23.636 15.3341 23.636 15.3343 23.636C15.335 23.6361 15.3359 23.6362 15.3392 23.635C15.3425 23.6338 15.3426 23.6337 15.3431 23.6332C15.3429 23.6334 15.3432 23.633 15.3431 23.6332C15.346 23.6306 15.3616 23.6154 15.3834 23.5742C15.4322 23.4823 15.487 23.3121 15.5284 23.0124C15.6119 22.4079 15.6135 21.521 15.6135 20.2405L15.6135 7.75954C15.6135 6.47902 15.6119 5.59214 15.5284 4.98758C15.487 4.68789 15.4322 4.51767 15.3834 4.42581C15.3616 4.38463 15.3464 4.36991 15.3436 4.36729C15.3429 4.36665 15.343 4.36649 15.342 4.36605C15.3415 4.36581 15.3406 4.3655 15.3392 4.36498C15.3351 4.36352 15.3358 4.36391 15.3343 4.36399C15.3304 4.36421 15.3092 4.36599 15.2656 4.38388C15.1683 4.42379 15.0153 4.52009 14.7882 4.72426C14.3301 5.13613 13.7511 5.81646 12.9168 6.80017L10.0481 10.1827C9.85543 10.4099 9.58941 10.5654 9.29429 10.6234L6.94697 11.0847C6.56355 11.1601 6.23026 11.3908 6.02909 11.7203Z" fill="white"/>
<path fill-rule="evenodd" clip-rule="evenodd" d="M19.6783 9.18208C19.916 8.93931 20.3013 8.93931 20.539 9.18208C21.7882 10.4579 22.493 12.1862 22.4999 13.9904C22.5069 15.7947 21.8154 17.5286 20.5762 18.8144C20.3404 19.0591 19.955 19.0622 19.7154 18.8214C19.4759 18.5805 19.4729 18.1869 19.7087 17.9423C20.7226 16.8902 21.2883 15.4715 21.2827 13.9953C21.277 12.5191 20.7003 11.1051 19.6783 10.0612C19.4406 9.81845 19.4406 9.42485 19.6783 9.18208Z" fill="white"/>
<path fill-rule="evenodd" clip-rule="evenodd" d="M22.6752 7.16711C22.9088 6.9443 23.2876 6.9443 23.5213 7.16711C25.4187 8.97671 26.4894 11.4282 26.4999 13.9873C26.5105 16.5465 25.4601 19.0059 23.5777 20.8297C23.3459 21.0543 22.9671 21.0571 22.7317 20.8361C22.4962 20.615 22.4932 20.2538 22.725 20.0292C24.386 18.42 25.3128 16.2499 25.3035 13.9918C25.2941 11.7337 24.3494 9.57069 22.6752 7.97398C22.4416 7.75117 22.4416 7.38992 22.6752 7.16711Z" fill="white"/>
</svg>
