<svg width="21" height="20" viewBox="0 0 21 20" fill="none" xmlns="http://www.w3.org/2000/svg">
<path d="M19.1125 19.75C16.8556 19.75 14.6257 19.258 12.4229 18.274C10.2201 17.2899 8.21597 15.8951 6.41042 14.0896C4.60486 12.284 3.21007 10.2799 2.22604 8.07708C1.24201 5.87431 0.75 3.64444 0.75 1.3875C0.75 1.0625 0.858333 0.791667 1.075 0.575C1.29167 0.358333 1.5625 0.25 1.8875 0.25H6.275C6.52778 0.25 6.75347 0.335764 6.95208 0.507292C7.15069 0.678819 7.26806 0.881944 7.30417 1.11667L8.00833 4.90833C8.04445 5.19722 8.03542 5.44097 7.98125 5.63958C7.92708 5.83819 7.82778 6.00972 7.68333 6.15417L5.05625 8.80833C5.41736 9.47639 5.84618 10.1219 6.34271 10.7448C6.83924 11.3677 7.38542 11.9681 7.98125 12.5458C8.54097 13.1056 9.12778 13.6247 9.74167 14.1031C10.3556 14.5816 11.0056 15.0194 11.6917 15.4167L14.2375 12.8708C14.4 12.7083 14.6122 12.5865 14.874 12.5052C15.1358 12.424 15.3931 12.4014 15.6458 12.4375L19.3833 13.1958C19.6361 13.2681 19.8438 13.399 20.0063 13.5885C20.1688 13.7781 20.25 13.9903 20.25 14.225V18.6125C20.25 18.9375 20.1417 19.2083 19.925 19.425C19.7083 19.6417 19.4375 19.75 19.1125 19.75ZM4.02708 6.75L5.81458 4.9625L5.35417 2.41667H2.94375C3.03403 3.15694 3.16042 3.88819 3.32292 4.61042C3.48542 5.33264 3.72014 6.04583 4.02708 6.75ZM13.7229 16.4458C14.4271 16.7528 15.1448 16.9965 15.876 17.1771C16.6073 17.3576 17.3431 17.475 18.0833 17.5292V15.1458L15.5375 14.6313L13.7229 16.4458Z" fill="#222222"/>
</svg>
