<svg width="20" height="20" viewBox="0 0 20 20" fill="none" xmlns="http://www.w3.org/2000/svg">
<g clip-path="url(#clip0_315_2060)">
<path d="M12.3742 10.6225L7.83417 7.06833C7.1475 6.53083 6.18667 6.53 5.5 7.06833L0.959167 10.6217C0.35 11.0992 0 11.8175 0 12.5908V20H13.3333V12.5908C13.3333 11.8167 12.9833 11.0992 12.3742 10.6225ZM11.6667 18.3333H1.66667V12.5908C1.66667 12.3325 1.78333 12.0933 1.98667 11.9342L6.52667 8.38167C6.60833 8.31667 6.72333 8.3175 6.80667 8.38167L11.3467 11.9358C11.55 12.0942 11.6667 12.3342 11.6667 12.5917V18.3333ZM5 12.5H8.33333V15.8333H5V12.5ZM15 10.8333H16.6667V12.5H15V10.8333ZM15 14.1667H16.6667V15.8333H15V14.1667ZM11.6667 4.16667H13.3333V5.83333H11.6667V4.16667ZM16.6667 5.83333H15V4.16667H16.6667V5.83333ZM11.6667 7.5H13.3333V9.16667H11.6667V7.5ZM15 7.5H16.6667V9.16667H15V7.5ZM20 2.5V20H15V18.3333H18.3333V2.5C18.3333 2.04 17.96 1.66667 17.5 1.66667H10.8333C10.3733 1.66667 10 2.04 10 2.5V6.64833L8.33333 5.34417V2.5C8.33333 2.48583 8.33333 2.47083 8.33417 2.45667C8.3575 1.09833 9.46917 0 10.8333 0H17.5C18.8783 0 20 1.12167 20 2.5Z" fill="black"/>
</g>
<defs>
<clipPath id="clip0_315_2060">
<rect width="20" height="20" fill="white"/>
</clipPath>
</defs>
</svg>
