<svg width="43" height="48" viewBox="0 0 43 48" fill="none" xmlns="http://www.w3.org/2000/svg">
<path fill-rule="evenodd" clip-rule="evenodd" d="M37.1036 23.2349V44.561C37.1036 46.0906 35.8528 47.3413 34.3232 47.3413H3.13531C1.60571 47.3413 0.35498 46.0906 0.35498 44.561V7.29385C0.35498 5.76397 1.60543 4.51663 3.13531 4.51663H10.1779V4.04632C10.1779 3.63042 10.5149 3.29338 10.9308 3.29338H14.8352C15.4544 1.7507 16.9632 0.658936 18.7293 0.658936C20.4954 0.658936 22.0042 1.7507 22.6234 3.29338H26.5278C26.9436 3.29338 27.2807 3.63042 27.2807 4.04632V4.51663H34.3232C35.8531 4.51663 37.1036 5.76397 37.1036 7.29385V9.28265C38.0399 8.84661 39.1675 8.85715 40.1277 9.41235L41.0049 9.91522L41.0062 9.91607C42.5707 10.8173 43.1086 12.8322 42.2073 14.3968L42.2069 14.3975L37.1036 23.2349ZM10.1779 6.02251H3.13531C2.43451 6.02251 1.86086 6.59305 1.86086 7.29385V44.561C1.86086 45.262 2.43413 45.8354 3.13531 45.8354H34.3232C35.0243 45.8354 35.5977 45.262 35.5977 44.561V25.8427L34.2843 28.1171V43.7691C34.2843 44.1849 33.9472 44.522 33.5314 44.522H3.92722C3.5114 44.522 3.17427 44.1849 3.17427 43.7691V8.08887C3.17427 7.67296 3.5114 7.33592 3.92722 7.33592H10.1779V6.02251ZM25.7748 8.55908V4.79926H22.0755C21.7275 4.79926 21.4249 4.56086 21.3434 4.22261C21.0594 3.04312 19.9977 2.16482 18.7293 2.16482C17.4608 2.16482 16.3991 3.04312 16.1151 4.22261C16.0337 4.56086 15.731 4.79926 15.3831 4.79926H11.6837V8.55908H25.7748ZM35.5977 10.7072V7.29385C35.5977 6.59305 35.0241 6.02251 34.3232 6.02251H27.2807V7.33592H33.5314C33.9472 7.33592 34.2843 7.67296 34.2843 8.08887V12.9813L35.5977 10.7072ZM39.804 15.5472L40.9026 13.645C41.3899 12.7988 41.1009 11.7087 40.2548 11.2211L39.378 10.7184C39.3771 10.7179 39.3762 10.7173 39.3751 10.7167C38.5297 10.2269 37.4435 10.5201 36.9564 11.3657L36.956 11.3663L35.8573 13.2686L39.804 15.5472ZM28.4423 35.2223L39.051 16.8513L35.1042 14.5726L24.4941 32.9428L28.4423 35.2223ZM10.1779 8.84181H4.68016V43.0161H32.7784V30.7248L29.3699 36.6274C29.3694 36.6283 29.3688 36.6291 29.3683 36.6299C29.3023 36.7444 29.2072 36.8395 29.0928 36.9055L27.9441 37.5686H29.6367C30.0522 37.5686 30.3896 37.9059 30.3896 38.3215C30.3896 38.7371 30.0522 39.0745 29.6367 39.0745H25.3354L23.8419 39.9367C23.6089 40.0712 23.3219 40.0711 23.0889 39.9366C22.856 39.8021 22.7124 39.5535 22.7124 39.2845V39.0745H18.3164C17.9009 39.0745 17.5635 38.7371 17.5635 38.3215C17.5635 37.9059 17.9009 37.5686 18.3164 37.5686H22.7124V35.4047H18.3164C17.9009 35.4047 17.5635 35.0674 17.5635 34.6518C17.5635 34.2363 17.9009 33.8988 18.3164 33.8988H22.7124V33.2184C22.7124 33.0849 22.7478 32.9553 22.8134 32.8417L25.1735 28.7555H18.3164C17.9009 28.7555 17.5635 28.4182 17.5635 28.0026C17.5635 27.587 17.9009 27.2496 18.3164 27.2496H26.0433L27.2931 25.0859H18.3164C17.9009 25.0859 17.5635 24.7484 17.5635 24.3329C17.5635 23.9173 17.9009 23.58 18.3164 23.58H28.1628L32.7784 15.5885C32.7784 14.4461 32.7784 8.84181 32.7784 8.84181H27.2807V9.31202C27.2807 9.72792 26.9436 10.065 26.5278 10.065H10.9308C10.5149 10.065 10.1779 9.72792 10.1779 9.31202V8.84181ZM27.2133 36.2516L24.2183 34.5225V37.9805L27.2133 36.2516ZM18.7293 5.14628C18.2271 5.14628 17.8172 4.73649 17.8172 4.23428C17.8172 3.73508 18.2271 3.32529 18.7293 3.32529C19.2315 3.32529 19.6413 3.73508 19.6413 4.23428C19.6413 4.73649 19.2315 5.14628 18.7293 5.14628ZM8.4874 32.5185H13.5868C14.3683 32.5185 15.0052 33.1555 15.0052 33.937V39.0364C15.0052 39.8178 14.3683 40.4548 13.5868 40.4548H8.4874C7.70585 40.4548 7.06886 39.8178 7.06886 39.0364V33.937C7.06886 33.1555 7.70585 32.5185 8.4874 32.5185ZM8.57475 38.9489H13.4994V34.0244L8.57475 34.0243V38.9489ZM9.14811 36.8889C8.8539 36.5954 8.85324 36.1182 9.1467 35.824C9.44006 35.5298 9.91724 35.5291 10.2115 35.8225L10.7385 36.3482L11.8091 35.0254C12.0705 34.7024 12.545 34.6524 12.868 34.9139C13.191 35.1753 13.241 35.6498 12.9795 35.9728L11.3835 37.9448C11.2494 38.1105 11.0513 38.2116 10.8383 38.223C10.6254 38.2343 10.4176 38.1548 10.2666 38.0043L9.14811 36.8889ZM8.4874 22.1995H13.5868C14.3683 22.1995 15.0052 22.8365 15.0052 23.6181V28.7174C15.0052 29.4979 14.3673 30.1389 13.5868 30.1389H8.4874C7.70689 30.1389 7.06886 29.4979 7.06886 28.7174V23.6181C7.06886 22.8365 7.70585 22.1995 8.4874 22.1995ZM8.57475 23.7054V28.6331H13.4994V23.7054H8.57475ZM18.3164 14.4464C17.9009 14.4464 17.5635 14.1091 17.5635 13.6935C17.5635 13.2779 17.9009 12.9405 18.3164 12.9405H29.6367C30.0522 12.9405 30.3896 13.2779 30.3896 13.6935C30.3896 14.1091 30.0522 14.4464 29.6367 14.4464H18.3164ZM18.3164 18.1162C17.9009 18.1162 17.5635 17.7787 17.5635 17.3632C17.5635 16.9477 17.9009 16.6103 18.3164 16.6103H29.6367C30.0522 16.6103 30.3896 16.9477 30.3896 17.3632C30.3896 17.7787 30.0522 18.1162 29.6367 18.1162H18.3164ZM8.4874 11.5602H13.5868C14.3683 11.5602 15.0052 12.1972 15.0052 12.9787V18.078C15.0052 18.8595 14.3683 19.4966 13.5868 19.4966H8.4874C7.70585 19.4966 7.06886 18.8595 7.06886 18.078V12.9787C7.06886 12.1972 7.70585 11.5602 8.4874 11.5602ZM8.57475 17.9907H13.4994V13.0661H8.57475V17.9907ZM9.14736 15.9298C8.85352 15.636 8.85352 15.1589 9.14736 14.8651C9.44119 14.5711 9.91837 14.5711 10.2122 14.8651L10.7393 15.392L11.8091 14.0702C12.0705 13.7472 12.545 13.6972 12.868 13.9587C13.191 14.2201 13.241 14.6946 12.9795 15.0176L11.3835 16.9896C11.2493 17.1555 11.0509 17.2566 10.8378 17.2678C10.6246 17.279 10.4168 17.1992 10.2659 17.0483L9.14736 15.9298Z" fill="white"/>
</svg>
