<svg width="56" height="56" viewBox="0 0 56 56" fill="none" xmlns="http://www.w3.org/2000/svg">
<path d="M24.0923 40.8416L43.7736 21.1603L39.8652 17.252L24.0923 33.0249L16.1361 25.0687L12.2277 28.977L24.0923 40.8416ZM28.0006 55.9166C24.1388 55.9166 20.5097 55.1838 17.1131 53.7181C13.7166 52.2525 10.7621 50.2635 8.24961 47.751C5.73711 45.2385 3.74805 42.2839 2.28242 38.8874C0.816797 35.4909 0.0839844 31.8617 0.0839844 27.9999C0.0839844 24.1381 0.816797 20.5089 2.28242 17.1124C3.74805 13.7159 5.73711 10.7614 8.24961 8.24888C10.7621 5.73638 13.7166 3.74731 17.1131 2.28169C20.5097 0.816064 24.1388 0.083252 28.0006 0.083252C31.8625 0.083252 35.4916 0.816064 38.8881 2.28169C42.2847 3.74731 45.2392 5.73638 47.7517 8.24888C50.2642 10.7614 52.2533 13.7159 53.7189 17.1124C55.1845 20.5089 55.9173 24.1381 55.9173 27.9999C55.9173 31.8617 55.1845 35.4909 53.7189 38.8874C52.2533 42.2839 50.2642 45.2385 47.7517 47.751C45.2392 50.2635 42.2847 52.2525 38.8881 53.7181C35.4916 55.1838 31.8625 55.9166 28.0006 55.9166Z" fill="#92E16D"/>
</svg>
