<svg width="25" height="24" viewBox="0 0 25 24" fill="none" xmlns="http://www.w3.org/2000/svg">
<mask id="mask0_224_4848" style="mask-type:alpha" maskUnits="userSpaceOnUse" x="0" y="0" width="25" height="24">
<rect x="0.5" width="24" height="24" fill="#D9D9D9"/>
</mask>
<g mask="url(#mask0_224_4848)">
<path d="M12.5 22C10.7333 22 9.29167 21.7208 8.175 21.1625C7.05833 20.6042 6.5 19.8833 6.5 19C6.5 18.6 6.62083 18.2292 6.8625 17.8875C7.10417 17.5458 7.44167 17.25 7.875 17L9.45 18.475C9.3 18.5417 9.1375 18.6167 8.9625 18.7C8.7875 18.7833 8.65 18.8833 8.55 19C8.76667 19.2667 9.26667 19.5 10.05 19.7C10.8333 19.9 11.65 20 12.5 20C13.35 20 14.1708 19.9 14.9625 19.7C15.7542 19.5 16.2583 19.2667 16.475 19C16.3583 18.8667 16.2083 18.7583 16.025 18.675C15.8417 18.5917 15.6667 18.5167 15.5 18.45L17.05 16.95C17.5167 17.2167 17.875 17.5208 18.125 17.8625C18.375 18.2042 18.5 18.5833 18.5 19C18.5 19.8833 17.9417 20.6042 16.825 21.1625C15.7083 21.7208 14.2667 22 12.5 22ZM12.525 16.5C14.175 15.2833 15.4167 14.0625 16.25 12.8375C17.0833 11.6125 17.5 10.3833 17.5 9.15C17.5 7.45 16.9583 6.16667 15.875 5.3C14.7917 4.43333 13.6667 4 12.5 4C11.3333 4 10.2083 4.43333 9.125 5.3C8.04167 6.16667 7.5 7.45 7.5 9.15C7.5 10.2667 7.90833 11.4292 8.725 12.6375C9.54167 13.8458 10.8083 15.1333 12.525 16.5ZM12.5 19C10.15 17.2667 8.39583 15.5833 7.2375 13.95C6.07917 12.3167 5.5 10.7167 5.5 9.15C5.5 7.96667 5.7125 6.92917 6.1375 6.0375C6.5625 5.14583 7.10833 4.4 7.775 3.8C8.44167 3.2 9.19167 2.75 10.025 2.45C10.8583 2.15 11.6833 2 12.5 2C13.3167 2 14.1417 2.15 14.975 2.45C15.8083 2.75 16.5583 3.2 17.225 3.8C17.8917 4.4 18.4375 5.14583 18.8625 6.0375C19.2875 6.92917 19.5 7.96667 19.5 9.15C19.5 10.7167 18.9208 12.3167 17.7625 13.95C16.6042 15.5833 14.85 17.2667 12.5 19ZM12.5 11C13.05 11 13.5208 10.8042 13.9125 10.4125C14.3042 10.0208 14.5 9.55 14.5 9C14.5 8.45 14.3042 7.97917 13.9125 7.5875C13.5208 7.19583 13.05 7 12.5 7C11.95 7 11.4792 7.19583 11.0875 7.5875C10.6958 7.97917 10.5 8.45 10.5 9C10.5 9.55 10.6958 10.0208 11.0875 10.4125C11.4792 10.8042 11.95 11 12.5 11Z" fill="#1C1B1F"/>
</g>
</svg>
