<svg width="19" height="18" viewBox="0 0 19 18" fill="none" xmlns="http://www.w3.org/2000/svg">
<path d="M2.5 16H3.925L13.7 6.225L12.275 4.8L2.5 14.575V16ZM0.5 18V13.75L13.7 0.575C13.9 0.391667 14.1208 0.25 14.3625 0.15C14.6042 0.05 14.8583 0 15.125 0C15.3917 0 15.65 0.05 15.9 0.15C16.15 0.25 16.3667 0.4 16.55 0.6L17.925 2C18.125 2.18333 18.2708 2.4 18.3625 2.65C18.4542 2.9 18.5 3.15 18.5 3.4C18.5 3.66667 18.4542 3.92083 18.3625 4.1625C18.2708 4.40417 18.125 4.625 17.925 4.825L4.75 18H0.5ZM12.975 5.525L12.275 4.8L13.7 6.225L12.975 5.525Z" fill="#414D63"/>
</svg>
