<svg width="25" height="24" viewBox="0 0 25 24" fill="none" xmlns="http://www.w3.org/2000/svg">
<mask id="mask0_315_2058" style="mask-type:alpha" maskUnits="userSpaceOnUse" x="0" y="0" width="25" height="24">
<rect x="0.5" width="24" height="24" fill="#D9D9D9"/>
</mask>
<g mask="url(#mask0_315_2058)">
</g>
<g clip-path="url(#clip0_315_2058)">
<path d="M14.3742 12.6225L9.83417 9.06833C9.1475 8.53083 8.18667 8.53 7.5 9.06833L2.95917 12.6217C2.35 13.0992 2 13.8175 2 14.5908V22H15.3333V14.5908C15.3333 13.8167 14.9833 13.0992 14.3742 12.6225ZM13.6667 20.3333H3.66667V14.5908C3.66667 14.3325 3.78333 14.0933 3.98667 13.9342L8.52667 10.3817C8.60833 10.3167 8.72333 10.3175 8.80667 10.3817L13.3467 13.9358C13.55 14.0942 13.6667 14.3342 13.6667 14.5917V20.3333ZM7 14.5H10.3333V17.8333H7V14.5ZM17 12.8333H18.6667V14.5H17V12.8333ZM17 16.1667H18.6667V17.8333H17V16.1667ZM13.6667 6.16667H15.3333V7.83333H13.6667V6.16667ZM18.6667 7.83333H17V6.16667H18.6667V7.83333ZM13.6667 9.5H15.3333V11.1667H13.6667V9.5ZM17 9.5H18.6667V11.1667H17V9.5ZM22 4.5V22H17V20.3333H20.3333V4.5C20.3333 4.04 19.96 3.66667 19.5 3.66667H12.8333C12.3733 3.66667 12 4.04 12 4.5V8.64833L10.3333 7.34417V4.5C10.3333 4.48583 10.3333 4.47083 10.3342 4.45667C10.3575 3.09833 11.4692 2 12.8333 2H19.5C20.8783 2 22 3.12167 22 4.5Z" fill="black"/>
</g>
<defs>
<clipPath id="clip0_315_2058">
<rect width="20" height="20" fill="white" transform="translate(2 2)"/>
</clipPath>
</defs>
</svg>
