<svg width="49" height="48" viewBox="0 0 49 48" fill="none" xmlns="http://www.w3.org/2000/svg">
<path d="M25.668 11.625H10.668C9.22077 11.625 8.04297 10.4472 8.04297 9V6C8.04297 4.5528 9.22077 3.375 10.668 3.375H14.1982C14.6904 1.6458 16.2826 0.375 18.168 0.375C19.2828 0.375 20.3199 0.81 21.0889 1.5996C21.5914 2.08815 21.9502 2.69895 22.1392 3.375H25.668C27.1152 3.375 28.293 4.5528 28.293 6V9C28.293 10.4472 27.1152 11.625 25.668 11.625ZM10.668 5.625C10.4614 5.625 10.293 5.79345 10.293 6V9C10.293 9.20655 10.4614 9.375 10.668 9.375H25.668C25.8745 9.375 26.043 9.20655 26.043 9V6C26.043 5.79345 25.8745 5.625 25.668 5.625H21.168C20.5468 5.625 20.043 5.12115 20.043 4.5C20.043 3.9975 19.8496 3.5325 19.498 3.1911C19.1347 2.81835 18.6703 2.625 18.168 2.625C17.1337 2.625 16.293 3.46575 16.293 4.5C16.293 5.12115 15.7891 5.625 15.168 5.625H10.668Z" fill="white"/>
<path d="M25.668 11.625H10.668C9.22077 11.625 8.04297 10.4472 8.04297 9V6C8.04297 4.5528 9.22077 3.375 10.668 3.375H14.1982C14.6904 1.6458 16.2826 0.375 18.168 0.375C19.2828 0.375 20.3199 0.81 21.0889 1.5996C21.5914 2.08815 21.9502 2.69895 22.1392 3.375H25.668C27.1152 3.375 28.293 4.5528 28.293 6V9C28.293 10.4472 27.1152 11.625 25.668 11.625ZM10.668 5.625C10.4614 5.625 10.293 5.79345 10.293 6V9C10.293 9.20655 10.4614 9.375 10.668 9.375H25.668C25.8745 9.375 26.043 9.20655 26.043 9V6C26.043 5.79345 25.8745 5.625 25.668 5.625H21.168C20.5468 5.625 20.043 5.12115 20.043 4.5C20.043 3.9975 19.8496 3.5325 19.498 3.1911C19.1347 2.81835 18.6703 2.625 18.168 2.625C17.1337 2.625 16.293 3.46575 16.293 4.5C16.293 5.12115 15.7891 5.625 15.168 5.625H10.668Z" fill="white"/>
<path d="M33.4228 20.4149C32.8017 20.4149 32.2978 19.911 32.2978 19.2899V10.5C32.2978 9.46575 31.4571 8.625 30.4228 8.625H27.168C26.5468 8.625 26.043 8.12115 26.043 7.5C26.043 6.87885 26.5468 6.375 27.168 6.375H30.4228C32.6977 6.375 34.5478 8.22585 34.5478 10.5V19.2899C34.5478 19.911 34.044 20.4149 33.4228 20.4149Z" fill="white"/>
<path d="M30.4229 47.625H6.42285C4.14795 47.625 2.29785 45.7749 2.29785 43.5V10.5C2.29785 8.2251 4.14795 6.375 6.42285 6.375H9.168C9.78915 6.375 10.293 6.87885 10.293 7.5C10.293 8.12115 9.78915 8.625 9.168 8.625H6.42285C5.3886 8.625 4.54785 9.46575 4.54785 10.5V43.5C4.54785 44.5342 5.3886 45.375 6.42285 45.375H30.4229C31.4571 45.375 32.2979 44.5342 32.2979 43.5V40.5147C32.2979 39.8936 32.8017 39.3897 33.4229 39.3897C34.044 39.3897 34.5479 39.8936 34.5479 40.5147V43.5C34.5479 45.7749 32.6978 47.625 30.4229 47.625Z" fill="white"/>
<path d="M22.8191 41.6251C22.5232 41.6251 22.2361 41.5087 22.0237 41.2955C21.7571 41.0297 21.6428 40.6481 21.716 40.2797L22.7765 34.9763C22.8205 34.758 22.9274 34.5581 23.0842 34.4014L36.8728 20.6128C37.0837 20.4019 37.3694 20.2832 37.6682 20.2832C37.967 20.2832 38.2526 20.4019 38.4637 20.6128L42.7058 24.8557C43.1453 25.2952 43.1453 26.0071 42.7058 26.4464L28.9172 40.235C28.7605 40.3925 28.5598 40.4995 28.343 40.5427L23.0402 41.6031C22.967 41.6178 22.8925 41.6251 22.8191 41.6251ZM24.9154 35.7511L24.2533 39.0661L27.5668 38.4032L40.3198 25.651L37.6684 22.9988L24.9154 35.7511Z" fill="white"/>
<path d="M41.9102 26.7758C41.6114 26.7758 41.3258 26.6571 41.1147 26.4462L36.8726 22.2033C36.4331 21.7638 36.4331 21.0519 36.8726 20.6126L38.9937 18.4914C40.5537 16.932 43.2725 16.9328 44.8268 18.4922C45.606 19.2701 46.0353 20.3057 46.0353 21.4079C46.0353 22.5101 45.6062 23.5458 44.8268 24.3251L42.7056 26.4462C42.4947 26.6571 42.209 26.7758 41.9102 26.7758ZM39.2588 21.4079L41.9102 24.06L43.2359 22.7343C43.5903 22.3799 43.7852 21.9089 43.7852 21.4079C43.7852 20.9069 43.5903 20.4366 43.2359 20.0822C42.5268 19.3731 41.2935 19.3731 40.5845 20.0822L39.2588 21.4079Z" fill="white"/>
<path d="M12.168 35.625H9.16797C8.54682 35.625 8.04297 35.1212 8.04297 34.5C8.04297 33.8788 8.54682 33.375 9.16797 33.375H12.168C12.7891 33.375 13.293 33.8788 13.293 34.5C13.293 35.1212 12.7891 35.625 12.168 35.625Z" fill="white"/>
<path d="M19.4277 35.625H16.668C16.0468 35.625 15.543 35.1212 15.543 34.5C15.543 33.8788 16.0468 33.375 16.668 33.375H19.4277C20.0488 33.375 20.5527 33.8788 20.5527 34.5C20.5527 35.1212 20.0488 35.625 19.4277 35.625Z" fill="white"/>
<path d="M12.168 29.625H9.16797C8.54682 29.625 8.04297 29.1212 8.04297 28.5C8.04297 27.8788 8.54682 27.375 9.16797 27.375H12.168C12.7891 27.375 13.293 27.8788 13.293 28.5C13.293 29.1212 12.7891 29.625 12.168 29.625Z" fill="white"/>
<path d="M24.168 29.625H16.668C16.0468 29.625 15.543 29.1212 15.543 28.5C15.543 27.8788 16.0468 27.375 16.668 27.375H24.168C24.7891 27.375 25.293 27.8788 25.293 28.5C25.293 29.1212 24.7891 29.625 24.168 29.625Z" fill="white"/>
<path d="M18.0038 42.7352C17.9789 42.7352 17.9555 42.7344 17.932 42.7329C17.1205 42.6816 16.4144 42.5015 15.7757 42.1814C15.496 42.0414 15.3055 41.9133 15.1093 41.7792C14.9818 41.6928 14.8499 41.6019 14.6522 41.5002C13.4012 40.8498 11.7679 40.8696 9.79629 41.561C9.21474 41.7645 8.56869 41.4591 8.36214 40.8732C8.15559 40.2866 8.46324 39.6443 9.04914 39.4385C11.6273 38.5317 13.8596 38.553 15.6863 39.5015C15.9823 39.6539 16.183 39.7886 16.3763 39.9204C16.4965 40.0032 16.6121 40.0845 16.7821 40.1694C17.1469 40.3511 17.5687 40.4558 18.0727 40.4873C18.6938 40.5269 19.1639 41.0607 19.1245 41.6811C19.0879 42.2766 18.5927 42.7352 18.0038 42.7352Z" fill="white"/>
<path d="M25.668 11.625H10.668C9.22077 11.625 8.04297 10.4472 8.04297 9V6C8.04297 4.5528 9.22077 3.375 10.668 3.375H14.1982C14.6904 1.6458 16.2826 0.375 18.168 0.375C19.2828 0.375 20.3199 0.81 21.0889 1.5996C21.5914 2.08815 21.9502 2.69895 22.1392 3.375H25.668C27.1152 3.375 28.293 4.5528 28.293 6V9C28.293 10.4472 27.1152 11.625 25.668 11.625ZM10.668 5.625C10.4614 5.625 10.293 5.79345 10.293 6V9C10.293 9.20655 10.4614 9.375 10.668 9.375H25.668C25.8745 9.375 26.043 9.20655 26.043 9V6C26.043 5.79345 25.8745 5.625 25.668 5.625H21.168C20.5468 5.625 20.043 5.12115 20.043 4.5C20.043 3.9975 19.8496 3.5325 19.498 3.1911C19.1347 2.81835 18.6703 2.625 18.168 2.625C17.1337 2.625 16.293 3.46575 16.293 4.5C16.293 5.12115 15.7891 5.625 15.168 5.625H10.668Z" fill="white"/>
<path d="M27.168 23.625H9.16797C8.54682 23.625 8.04297 23.1212 8.04297 22.5V16.5C8.04297 15.8788 8.54682 15.375 9.16797 15.375H27.168C27.7891 15.375 28.293 15.8788 28.293 16.5V22.5C28.293 23.1212 27.7891 23.625 27.168 23.625ZM10.293 21.375H26.043V17.625H10.293V21.375Z" fill="white"/>
</svg>
