<svg width="21" height="16" viewBox="0 0 21 16" fill="none" xmlns="http://www.w3.org/2000/svg">
<path d="M12.5 9H17.5V7H12.5V9ZM12.5 6H17.5V4H12.5V6ZM3.5 12H11.5V11.45C11.5 10.7 11.1333 10.1042 10.4 9.6625C9.66667 9.22083 8.7 9 7.5 9C6.3 9 5.33333 9.22083 4.6 9.6625C3.86667 10.1042 3.5 10.7 3.5 11.45V12ZM7.5 8C8.05 8 8.52083 7.80417 8.9125 7.4125C9.30417 7.02083 9.5 6.55 9.5 6C9.5 5.45 9.30417 4.97917 8.9125 4.5875C8.52083 4.19583 8.05 4 7.5 4C6.95 4 6.47917 4.19583 6.0875 4.5875C5.69583 4.97917 5.5 5.45 5.5 6C5.5 6.55 5.69583 7.02083 6.0875 7.4125C6.47917 7.80417 6.95 8 7.5 8ZM2.5 16C1.95 16 1.47917 15.8042 1.0875 15.4125C0.695833 15.0208 0.5 14.55 0.5 14V2C0.5 1.45 0.695833 0.979167 1.0875 0.5875C1.47917 0.195833 1.95 0 2.5 0H18.5C19.05 0 19.5208 0.195833 19.9125 0.5875C20.3042 0.979167 20.5 1.45 20.5 2V14C20.5 14.55 20.3042 15.0208 19.9125 15.4125C19.5208 15.8042 19.05 16 18.5 16H2.5ZM2.5 14H18.5V2H2.5V14Z" fill="#222222"/>
</svg>
