<svg width="21" height="20" viewBox="0 0 21 20" fill="none" xmlns="http://www.w3.org/2000/svg">
<path d="M16.2008 7.04403V0.0012207H4.79918V7.04403H0.5V19.9988H20.5V7.04403H16.2008ZM19.3281 8.21591V10.1096L16.2008 11.7587V8.21591H19.3281ZM15.0289 1.1731V12.3766L10.5 14.7649L5.97106 12.3766V1.1731H15.0289ZM4.79918 8.21591V11.7587L1.67188 10.1096V8.21587H4.79918V8.21591ZM1.67188 18.8268V11.4344L10.5 16.0897L19.3281 11.4344V18.8268H1.67188Z" fill="black"/>
<path d="M10.1113 2.79565H10.8926V6.26448H10.1113V2.79565Z" fill="black"/>
<path d="M9.55855 5.48323H8.0498L9.51648 3.42952L9.5173 2.79565H7.03949V3.5769H8.45121L6.98438 5.63081V6.26448H9.55855V5.48323Z" fill="black"/>
<path d="M11.4446 6.26448H12.2259V5.09499C12.3605 5.09433 12.4992 5.09378 12.5836 5.09378C13.2254 5.09378 13.7475 4.57831 13.7475 3.94472C13.7475 3.31112 13.2254 2.79565 12.5836 2.79565H11.4446H11.4434L11.4446 6.26448ZM12.5836 3.5769C12.791 3.5769 12.9662 3.74534 12.9662 3.94472C12.9662 4.14409 12.791 4.31253 12.5836 4.31253C12.4998 4.31253 12.3628 4.31308 12.229 4.3137C12.2283 4.1746 12.2274 3.72288 12.227 3.5769H12.5836Z" fill="black"/>
<path d="M9.91406 8.21582H11.0859V9.3877H9.91406V8.21582Z" fill="black"/>
<path d="M12.2578 8.21582H13.4297V9.3877H12.2578V8.21582Z" fill="black"/>
<path d="M7.57031 8.21582H8.74219V9.3877H7.57031V8.21582Z" fill="black"/>
</svg>
