<svg width="48" height="50" viewBox="0 0 48 50" fill="none" xmlns="http://www.w3.org/2000/svg">
<path d="M46.5 19V10.2C46.5 9.0799 46.5 8.51984 46.282 8.09202C46.0903 7.71569 45.7843 7.40973 45.408 7.21799C44.9802 7 44.4201 7 43.3 7H4.7C3.5799 7 3.01984 7 2.59202 7.21799C2.21569 7.40973 1.90973 7.71569 1.71799 8.09202C1.5 8.51984 1.5 9.07989 1.5 10.2V19M46.5 19V45.8C46.5 46.9201 46.5 47.4802 46.282 47.908C46.0903 48.2843 45.7843 48.5903 45.408 48.782C44.9802 49 44.4201 49 43.3 49H4.7C3.5799 49 3.01984 49 2.59202 48.782C2.21569 48.5903 1.90973 48.2843 1.71799 47.908C1.5 47.4802 1.5 46.9201 1.5 45.8V19M46.5 19H1.5" stroke="black" stroke-width="2"/>
<path d="M13.5 1L13.5 13M34.5 1L34.5 13" stroke="black" stroke-width="2" stroke-linecap="round"/>
<path d="M24 41.5L24 26.5" stroke="black" stroke-width="2" stroke-linecap="round"/>
<path d="M31.5 34L16.5 34" stroke="black" stroke-width="2" stroke-linecap="round"/>
</svg>
