<svg width="23" height="22" viewBox="0 0 23 22" fill="none" xmlns="http://www.w3.org/2000/svg">
<mask id="mask0_300_3721" style="mask-type:alpha" maskUnits="userSpaceOnUse" x="0" y="0" width="23" height="22">
<rect x="0.5" width="22" height="22" fill="#D9D9D9"/>
</mask>
<g mask="url(#mask0_300_3721)">
<path d="M8.75 2.74984V0.916504H14.25V2.74984H8.75ZM10.5833 12.8332H12.4167V7.33317H10.5833V12.8332ZM11.5 20.1665C10.3694 20.1665 9.30382 19.9488 8.30313 19.5134C7.30243 19.078 6.42778 18.4859 5.67917 17.7373C4.93056 16.9887 4.33854 16.1141 3.90313 15.1134C3.46771 14.1127 3.25 13.0471 3.25 11.9165C3.25 10.7859 3.46771 9.72032 3.90313 8.71963C4.33854 7.71893 4.93056 6.84428 5.67917 6.09567C6.42778 5.34706 7.30243 4.75505 8.30313 4.31963C9.30382 3.88421 10.3694 3.6665 11.5 3.6665C12.4472 3.6665 13.3563 3.81928 14.2271 4.12484C15.0979 4.43039 15.9153 4.87345 16.6792 5.454L17.9625 4.17067L19.2458 5.454L17.9625 6.73734C18.5431 7.50123 18.9861 8.31859 19.2917 9.18942C19.5972 10.0603 19.75 10.9693 19.75 11.9165C19.75 13.0471 19.5323 14.1127 19.0969 15.1134C18.6615 16.1141 18.0694 16.9887 17.3208 17.7373C16.5722 18.4859 15.6976 19.078 14.6969 19.5134C13.6962 19.9488 12.6306 20.1665 11.5 20.1665ZM11.5 18.3332C13.2722 18.3332 14.7847 17.7068 16.0375 16.454C17.2903 15.2012 17.9167 13.6887 17.9167 11.9165C17.9167 10.1443 17.2903 8.63178 16.0375 7.379C14.7847 6.12623 13.2722 5.49984 11.5 5.49984C9.72778 5.49984 8.21528 6.12623 6.9625 7.379C5.70972 8.63178 5.08333 10.1443 5.08333 11.9165C5.08333 13.6887 5.70972 15.2012 6.9625 16.454C8.21528 17.7068 9.72778 18.3332 11.5 18.3332Z" fill="#1C1B1F"/>
</g>
</svg>
