<svg width="48" height="50" viewBox="0 0 48 50" fill="none" xmlns="http://www.w3.org/2000/svg">
<path d="M46.167 19V10.2C46.167 9.0799 46.167 8.51984 45.949 8.09202C45.7573 7.71569 45.4513 7.40973 45.075 7.21799C44.6471 7 44.0871 7 42.967 7H4.36699C3.24689 7 2.68683 7 2.25901 7.21799C1.88269 7.40973 1.57673 7.71569 1.38498 8.09202C1.16699 8.51984 1.16699 9.07989 1.16699 10.2V19M46.167 19V45.8C46.167 46.9201 46.167 47.4802 45.949 47.908C45.7573 48.2843 45.4513 48.5903 45.075 48.782C44.6471 49 44.0871 49 42.967 49H4.36699C3.24689 49 2.68683 49 2.25901 48.782C1.88269 48.5903 1.57673 48.2843 1.38498 47.908C1.16699 47.4802 1.16699 46.9201 1.16699 45.8V19M46.167 19H1.16699" stroke="black" stroke-width="2"/>
<path d="M13.167 1L13.167 13M34.167 1L34.167 13" stroke="black" stroke-width="2" stroke-linecap="round"/>
<path d="M41 34L30 34" stroke="black" stroke-width="2" stroke-linecap="round"/>
<path d="M20 34L9 34" stroke="black" stroke-width="2" stroke-linecap="round"/>
</svg>
