<svg width="48" height="50" viewBox="0 0 48 50" fill="none" xmlns="http://www.w3.org/2000/svg">
<path d="M46.1665 19V10.2C46.1665 9.0799 46.1665 8.51984 45.9485 8.09202C45.7568 7.71569 45.4508 7.40973 45.0745 7.21799C44.6467 7 44.0866 7 42.9665 7H4.3665C3.2464 7 2.68635 7 2.25852 7.21799C1.8822 7.40973 1.57624 7.71569 1.38449 8.09202C1.1665 8.51984 1.1665 9.07989 1.1665 10.2V19M46.1665 19V45.8C46.1665 46.9201 46.1665 47.4802 45.9485 47.908C45.7568 48.2843 45.4508 48.5903 45.0745 48.782C44.6467 49 44.0866 49 42.9665 49H4.36651C3.2464 49 2.68635 49 2.25852 48.782C1.8822 48.5903 1.57624 48.2843 1.38449 47.908C1.1665 47.4802 1.1665 46.9201 1.1665 45.8V19M46.1665 19H1.1665" stroke="white" stroke-width="2"/>
<path d="M13.1665 1L13.1665 13M34.1665 1L34.1665 13" stroke="white" stroke-width="2" stroke-linecap="round"/>
<path d="M41 34L30 34" stroke="white" stroke-width="2" stroke-linecap="round"/>
<path d="M20 34L9 34" stroke="white" stroke-width="2" stroke-linecap="round"/>
</svg>
