<svg width="49" height="48" viewBox="0 0 49 48" fill="none" xmlns="http://www.w3.org/2000/svg">
<path d="M4 22.2C4 21.0799 4 20.5198 4.21799 20.092C4.40973 19.7157 4.71569 19.4097 5.09202 19.218C5.51984 19 6.0799 19 7.2 19H18.0558C18.5427 19 18.7862 19 19.0154 19.0548C19.2187 19.1034 19.4131 19.1835 19.5915 19.2923C19.7927 19.415 19.9655 19.5866 20.3109 19.9297L26.1266 25.7066C26.472 26.0498 26.6448 26.2214 26.846 26.3441C27.0244 26.4529 27.2188 26.533 27.4221 26.5816C27.6513 26.6364 27.8948 26.6364 28.3817 26.6364H41.8C42.9201 26.6364 43.4802 26.6364 43.908 26.8544C44.2843 27.0461 44.5903 27.3521 44.782 27.7284C45 28.1562 45 28.7163 45 29.8364V43.8C45 44.9201 45 45.4802 44.782 45.908C44.5903 46.2843 44.2843 46.5903 43.908 46.782C43.4802 47 42.9201 47 41.8 47H7.2C6.0799 47 5.51984 47 5.09202 46.782C4.71569 46.5903 4.40973 46.2843 4.21799 45.908C4 45.4802 4 44.9201 4 43.8V22.2Z" stroke="white" stroke-width="2"/>
<path d="M40 26V10.6667L32.25 3H12.2C11.0799 3 10.5198 3 10.092 3.21799C9.71569 3.40973 9.40973 3.71569 9.21799 4.09202C9 4.51984 9 5.07989 9 6.2V18.3333" stroke="white" stroke-width="2" stroke-linejoin="round"/>
<path d="M27 3V14.4C27 14.9601 27 15.2401 27.109 15.454C27.2049 15.6422 27.3578 15.7951 27.546 15.891C27.7599 16 28.0399 16 28.6 16H40" stroke="white" stroke-width="2" stroke-linejoin="round"/>
</svg>
