<svg width="49" height="48" viewBox="0 0 49 48" fill="none" xmlns="http://www.w3.org/2000/svg">
<path d="M4.00098 22.2C4.00098 21.0799 4.00098 20.5198 4.21896 20.092C4.41071 19.7157 4.71667 19.4097 5.093 19.218C5.52082 19 6.08087 19 7.20098 19H18.0567C18.5437 19 18.7872 19 19.0164 19.0548C19.2197 19.1034 19.414 19.1835 19.5925 19.2923C19.7937 19.415 19.9665 19.5866 20.3119 19.9297L26.1275 25.7066C26.473 26.0498 26.6457 26.2214 26.847 26.3441C27.0254 26.4529 27.2198 26.533 27.4231 26.5816C27.6523 26.6364 27.8958 26.6364 28.3827 26.6364H41.801C42.9211 26.6364 43.4811 26.6364 43.909 26.8544C44.2853 27.0461 44.5912 27.3521 44.783 27.7284C45.001 28.1562 45.001 28.7163 45.001 29.8364V43.8C45.001 44.9201 45.001 45.4802 44.783 45.908C44.5912 46.2843 44.2853 46.5903 43.909 46.782C43.4811 47 42.9211 47 41.801 47H7.20098C6.08087 47 5.52082 47 5.093 46.782C4.71667 46.5903 4.41071 46.2843 4.21896 45.908C4.00098 45.4802 4.00098 44.9201 4.00098 43.8V22.2Z" stroke="black" stroke-width="2"/>
<path d="M40.001 26V10.6667L32.251 3H12.201C11.0809 3 10.5208 3 10.093 3.21799C9.71667 3.40973 9.41071 3.71569 9.21896 4.09202C9.00098 4.51984 9.00098 5.07989 9.00098 6.2V18.3333" stroke="black" stroke-width="2" stroke-linejoin="round"/>
<path d="M27.001 3V14.4C27.001 14.9601 27.001 15.2401 27.11 15.454C27.2058 15.6422 27.3588 15.7951 27.547 15.891C27.7609 16 28.0409 16 28.601 16H40.001" stroke="black" stroke-width="2" stroke-linejoin="round"/>
</svg>
